<svg width="236" height="59" viewBox="0 0 236 59" fill="none" xmlns="http://www.w3.org/2000/svg">
<circle cx="118.407" cy="33.1308" r="17.8817" stroke="#99180E" stroke-width="3"/>
<path d="M119.776 26.462C120.005 23.7171 120.516 20.9329 121.302 18.1815L121.355 17.9915L121.551 18.0308C123.471 18.4304 125.285 19.1838 126.93 20.2778L127.093 20.3826L127.002 20.553C125.652 23.1079 124.041 25.44 122.213 27.484L122.095 27.6215L121.944 27.5233C121.328 27.1368 120.66 26.8551 119.953 26.6847L119.776 26.6454V26.462ZM109.956 20.2385C111.607 19.151 113.421 18.4042 115.341 18.0177L115.531 17.9784L115.59 18.1618C116.441 20.9198 116.952 23.7106 117.103 26.4489L117.116 26.6323L116.939 26.6716C116.238 26.8289 115.57 27.104 114.948 27.484L114.79 27.5822L114.672 27.4447C112.864 25.309 111.259 22.9834 109.884 20.5202L109.785 20.3499L109.956 20.2385ZM103.306 29.993C103.706 28.0736 104.459 26.2655 105.553 24.6146L105.658 24.4508L105.829 24.5425C108.383 25.8921 110.716 27.5036 112.76 29.3314L112.897 29.4493L112.799 29.6C112.412 30.2157 112.131 30.884 111.96 31.5915L111.921 31.7684L111.738 31.7552C108.993 31.526 106.209 31.015 103.457 30.2289L103.267 30.1764L103.306 29.993ZM105.796 41.6539L105.626 41.7521L105.514 41.5884C104.427 39.9375 103.68 38.1229 103.293 36.2034L103.254 36.0134L103.437 35.9545C106.195 35.1028 108.986 34.5918 111.725 34.4412L111.908 34.4281L111.947 34.6049C112.104 35.3059 112.38 35.9741 112.76 36.5965L112.858 36.7537L112.72 36.8716C110.585 38.6731 108.259 40.2847 105.796 41.6539ZM117.044 39.7999C116.815 42.5448 116.304 45.329 115.524 48.0805L115.472 48.2704L115.275 48.2311C113.349 47.8315 111.541 47.0781 109.897 45.9841L109.733 45.8793L109.825 45.709C111.174 43.1541 112.786 40.8219 114.614 38.778L114.731 38.6404L114.882 38.7387C115.498 39.1252 116.166 39.4069 116.874 39.5772L117.051 39.6165L117.044 39.7999ZM118.407 37.9067C117.129 37.9067 115.93 37.4088 115.033 36.5047C114.129 35.6007 113.631 34.4019 113.631 33.1244C113.631 31.847 114.129 30.6481 115.026 29.7506C115.93 28.8466 117.129 28.3487 118.407 28.3487C119.684 28.3487 120.883 28.8466 121.787 29.7506C123.647 31.6111 123.647 34.6443 121.787 36.5047C120.883 37.4088 119.684 37.9067 118.407 37.9067ZM126.864 46.0234C125.213 47.1109 123.398 47.8577 121.479 48.2442L121.289 48.2835L121.23 48.1001C120.378 45.3421 119.867 42.5514 119.717 39.813L119.704 39.6296L119.881 39.5903C120.582 39.4331 121.25 39.1579 121.872 38.778L122.029 38.6797L122.147 38.8173C123.955 40.9529 125.56 43.2785 126.936 45.7417L127.034 45.9121L126.864 46.0234ZM133.507 36.2689C133.107 38.1884 132.354 40.003 131.26 41.6473L131.155 41.8111L130.985 41.7194C128.436 40.3699 126.104 38.7583 124.054 36.9306L123.916 36.8127L124.014 36.662C124.401 36.0462 124.682 35.378 124.853 34.6705L124.892 34.4936L125.076 34.5067C127.82 34.736 130.605 35.247 133.356 36.0331L133.546 36.0855L133.507 36.2689ZM133.376 30.3075C130.618 31.1591 127.827 31.6701 125.089 31.8208L124.905 31.8339L124.866 31.657C124.709 30.956 124.434 30.2878 124.054 29.6655L123.955 29.5082L124.093 29.3903C126.222 27.5888 128.554 25.9772 131.017 24.6015L131.188 24.5032L131.299 24.667C132.387 26.3179 133.133 28.1325 133.52 30.052L133.559 30.242L133.376 30.3075Z" fill="#99180E"/>
<path d="M16.8164 23.3624L6.01643 48.7625C5.7831 49.3958 5.41643 49.8958 4.91643 50.2625C4.44976 50.5958 3.9331 50.7625 3.36643 50.7625C2.46643 50.7625 1.79976 50.5125 1.36643 50.0125C0.933097 49.5125 0.716431 48.8958 0.716431 48.1625C0.716431 47.8625 0.766431 47.5458 0.866431 47.2125L13.3164 17.3124C13.5831 16.6458 13.9831 16.1291 14.5164 15.7624C15.0831 15.3958 15.6831 15.2458 16.3164 15.3124C16.9164 15.3124 17.4664 15.4958 17.9664 15.8625C18.4998 16.1958 18.8831 16.6791 19.1164 17.3124L31.4164 46.6125C31.5831 47.0458 31.6664 47.4458 31.6664 47.8125C31.6664 48.7125 31.3664 49.4291 30.7664 49.9625C30.1998 50.4958 29.5664 50.7625 28.8664 50.7625C28.2664 50.7625 27.7164 50.5791 27.2164 50.2125C26.7498 49.8458 26.3831 49.3458 26.1164 48.7125L15.3664 23.6625L16.8164 23.3624ZM7.56643 42.6625L10.3164 36.9125H23.8164L24.7664 42.6625H7.56643ZM60.2617 15.4624C61.1284 15.4624 61.8284 15.7624 62.3617 16.3624C62.8951 16.9291 63.1617 17.6458 63.1617 18.5124V36.6124C63.1617 39.3791 62.5617 41.8291 61.3617 43.9625C60.1951 46.0958 58.5784 47.7625 56.5117 48.9625C54.4451 50.1625 52.0451 50.7625 49.3117 50.7625C46.5784 50.7625 44.1617 50.1625 42.0617 48.9625C39.9951 47.7625 38.3617 46.0958 37.1617 43.9625C35.9951 41.8291 35.4117 39.3791 35.4117 36.6124V18.5124C35.4117 17.6458 35.7117 16.9291 36.3117 16.3624C36.9117 15.7624 37.6784 15.4624 38.6117 15.4624C39.3784 15.4624 40.0617 15.7624 40.6617 16.3624C41.2951 16.9291 41.6117 17.6458 41.6117 18.5124V36.6124C41.6117 38.2791 41.9617 39.7291 42.6617 40.9625C43.3951 42.1625 44.3451 43.0958 45.5117 43.7625C46.7117 44.4291 47.9784 44.7625 49.3117 44.7625C50.7451 44.7625 52.0784 44.4291 53.3117 43.7625C54.5451 43.0958 55.5451 42.1625 56.3117 40.9625C57.0784 39.7291 57.4617 38.2791 57.4617 36.6124V18.5124C57.4617 17.6458 57.7117 16.9291 58.2117 16.3624C58.7117 15.7624 59.3951 15.4624 60.2617 15.4624ZM82.5156 50.5125C81.5823 50.5125 80.8156 50.2291 80.2156 49.6625C79.6156 49.0625 79.3156 48.3291 79.3156 47.4625V18.4624H85.8157V47.4625C85.8157 48.3291 85.499 49.0625 84.8657 49.6625C84.2657 50.2291 83.4823 50.5125 82.5156 50.5125ZM71.4656 21.2624C70.599 21.2624 69.8656 20.9958 69.2656 20.4625C68.699 19.9291 68.4156 19.2291 68.4156 18.3625C68.4156 17.4958 68.699 16.8124 69.2656 16.3125C69.8656 15.7791 70.599 15.5124 71.4656 15.5124H93.6657C94.5323 15.5124 95.249 15.7791 95.8156 16.3125C96.4157 16.8458 96.7157 17.5458 96.7157 18.4125C96.7157 19.2791 96.4157 19.9791 95.8156 20.5124C95.249 21.0124 94.5323 21.2624 93.6657 21.2624H71.4656Z" fill="#99180E"/>
<path d="M160.705 51.0125C158.105 51.0125 155.705 50.5791 153.505 49.7125C151.339 48.8125 149.439 47.5625 147.805 45.9625C146.205 44.3291 144.955 42.4125 144.055 40.2125C143.189 38.0125 142.755 35.6125 142.755 33.0124C142.755 30.4124 143.189 28.0124 144.055 25.8125C144.955 23.6125 146.205 21.7125 147.805 20.1124C149.439 18.4791 151.339 17.2291 153.505 16.3624C155.705 15.4624 158.105 15.0124 160.705 15.0124C162.539 15.0124 164.305 15.2458 166.005 15.7124C167.705 16.1458 169.222 16.8124 170.555 17.7125C170.722 17.8124 170.839 17.9458 170.905 18.1125C170.972 18.2458 171.005 18.3958 171.005 18.5624C171.005 18.8958 170.889 19.1458 170.655 19.3125C170.422 19.4791 170.222 19.5625 170.055 19.5625C169.922 19.5625 169.805 19.5458 169.705 19.5125C169.605 19.4458 169.505 19.3958 169.405 19.3624C168.172 18.6624 166.822 18.0958 165.355 17.6625C163.889 17.2291 162.339 17.0125 160.705 17.0125C157.605 17.0125 154.855 17.7125 152.455 19.1125C150.089 20.4791 148.222 22.3625 146.855 24.7624C145.522 27.1624 144.855 29.9125 144.855 33.0124C144.855 36.1125 145.522 38.8791 146.855 41.3125C148.222 43.7125 150.089 45.5958 152.455 46.9625C154.855 48.3291 157.605 49.0125 160.705 49.0125C162.372 49.0125 164.005 48.7625 165.605 48.2625C167.239 47.7291 168.672 47.0458 169.905 46.2125L169.705 47.1125V34.6125L170.405 35.2625H160.705C160.439 35.2625 160.205 35.1625 160.005 34.9625C159.805 34.7625 159.705 34.5291 159.705 34.2625C159.705 33.9625 159.805 33.7291 160.005 33.5625C160.205 33.3624 160.439 33.2624 160.705 33.2624H170.705C171.005 33.2624 171.239 33.3624 171.405 33.5625C171.605 33.7625 171.705 33.9958 171.705 34.2625V46.8125C171.705 46.9458 171.672 47.0958 171.605 47.2625C171.539 47.4291 171.422 47.5791 171.255 47.7125C169.789 48.7125 168.139 49.5125 166.305 50.1125C164.505 50.7125 162.639 51.0125 160.705 51.0125ZM180.972 15.5124H199.822C200.089 15.5124 200.322 15.6124 200.522 15.8125C200.722 16.0125 200.822 16.2458 200.822 16.5125C200.822 16.8125 200.722 17.0625 200.522 17.2625C200.322 17.4291 200.089 17.5124 199.822 17.5124H181.572L182.072 16.6624V32.1625L181.472 31.4625H197.572C197.839 31.4625 198.072 31.5625 198.272 31.7624C198.472 31.9625 198.572 32.1958 198.572 32.4624C198.572 32.7624 198.472 33.0124 198.272 33.2125C198.072 33.3791 197.839 33.4625 197.572 33.4625H181.572L182.072 32.9124V48.7625L181.872 48.5125H199.822C200.089 48.5125 200.322 48.6125 200.522 48.8125C200.722 49.0125 200.822 49.2458 200.822 49.5125C200.822 49.8125 200.722 50.0625 200.522 50.2625C200.322 50.4291 200.089 50.5125 199.822 50.5125H180.972C180.706 50.5125 180.472 50.4125 180.272 50.2125C180.072 50.0125 179.972 49.7791 179.972 49.5125V16.5125C179.972 16.2458 180.072 16.0125 180.272 15.8125C180.472 15.6124 180.706 15.5124 180.972 15.5124ZM218.241 50.5125C217.941 50.5125 217.691 50.4125 217.491 50.2125C217.325 50.0125 217.241 49.7791 217.241 49.5125V16.7124H219.241V49.5125C219.241 49.7791 219.141 50.0125 218.941 50.2125C218.741 50.4125 218.508 50.5125 218.241 50.5125ZM206.091 17.4124C205.825 17.4124 205.591 17.3291 205.391 17.1624C205.191 16.9624 205.091 16.7291 205.091 16.4624C205.091 16.1958 205.191 15.9791 205.391 15.8125C205.591 15.6124 205.825 15.5124 206.091 15.5124H230.391C230.658 15.5124 230.891 15.6124 231.091 15.8125C231.291 15.9791 231.391 16.1958 231.391 16.4624C231.391 16.7624 231.291 16.9958 231.091 17.1624C230.891 17.3291 230.658 17.4124 230.391 17.4124H206.091Z" fill="black"/>
</svg>
