<svg width="229" height="57" viewBox="0 0 229 57" fill="none" xmlns="http://www.w3.org/2000/svg">
<circle cx="114.804" cy="31.894" r="17.3365" stroke="white" stroke-width="2.90854"/>
<path d="M116.131 25.4286C116.353 22.7674 116.848 20.0681 117.611 17.4005L117.661 17.2163L117.852 17.2544C119.713 17.6419 121.472 18.3723 123.066 19.4329L123.225 19.5345L123.136 19.6997C121.828 22.1767 120.265 24.4378 118.493 26.4194L118.379 26.5528L118.233 26.4575C117.636 26.0828 116.988 25.8097 116.302 25.6445L116.131 25.6064V25.4286ZM106.61 19.3948C108.211 18.3405 109.97 17.6165 111.831 17.2417L112.015 17.2036L112.072 17.3815C112.898 20.0554 113.393 22.761 113.539 25.4159L113.552 25.5937L113.381 25.6318C112.701 25.7843 112.053 26.051 111.45 26.4194L111.297 26.5146L111.183 26.3813C109.43 24.3107 107.874 22.056 106.54 19.6679L106.445 19.5028L106.61 19.3948ZM100.163 28.8519C100.551 26.991 101.281 25.238 102.342 23.6375L102.444 23.4787L102.609 23.5676C105.086 24.876 107.347 26.4384 109.328 28.2105L109.462 28.3248L109.367 28.4709C108.992 29.0679 108.719 29.7157 108.554 30.4017L108.515 30.5731L108.338 30.5604C105.676 30.3381 102.977 29.8427 100.31 29.0806L100.125 29.0298L100.163 28.8519ZM102.577 40.1573L102.412 40.2526L102.304 40.0938C101.25 38.4932 100.525 36.7339 100.151 34.873L100.113 34.6888L100.29 34.6316C102.964 33.806 105.67 33.3106 108.325 33.1645L108.503 33.1518L108.541 33.3233C108.693 34.0028 108.96 34.6507 109.328 35.2541L109.424 35.4065L109.29 35.5208C107.22 37.2674 104.965 38.8299 102.577 40.1573ZM113.482 38.3599C113.26 41.0211 112.764 43.7204 112.009 46.3879L111.958 46.5721L111.767 46.534C109.9 46.1466 108.147 45.4162 106.553 44.3555L106.394 44.2539L106.483 44.0887C107.791 41.6117 109.354 39.3507 111.126 37.369L111.24 37.2357L111.386 37.3309C111.983 37.7057 112.631 37.9788 113.317 38.1439L113.489 38.182L113.482 38.3599ZM114.803 36.5243C113.565 36.5243 112.402 36.0416 111.532 35.1651C110.656 34.2887 110.173 33.1264 110.173 31.8879C110.173 30.6494 110.656 29.4871 111.526 28.6169C112.402 27.7405 113.565 27.2578 114.803 27.2578C116.042 27.2578 117.204 27.7405 118.081 28.6169C119.884 30.4207 119.884 33.3614 118.081 35.1651C117.204 36.0416 116.042 36.5243 114.803 36.5243ZM123.003 44.3936C121.402 45.4479 119.643 46.172 117.782 46.5467L117.598 46.5848L117.541 46.407C116.715 43.7331 116.22 41.0274 116.073 38.3726L116.061 38.1947L116.232 38.1566C116.912 38.0042 117.56 37.7374 118.163 37.369L118.316 37.2738L118.43 37.4072C120.183 39.4777 121.739 41.7324 123.073 44.1205L123.168 44.2856L123.003 44.3936ZM129.443 34.9365C129.056 36.7974 128.325 38.5567 127.265 40.1509L127.163 40.3097L126.998 40.2208C124.527 38.9124 122.266 37.35 120.278 35.578L120.145 35.4637L120.24 35.3176C120.615 34.7205 120.888 34.0727 121.053 33.3868L121.091 33.2153L121.269 33.228C123.93 33.4503 126.629 33.9457 129.297 34.7078L129.481 34.7587L129.443 34.9365ZM129.316 29.1568C126.642 29.9825 123.936 30.4779 121.282 30.624L121.104 30.6367L121.066 30.4652C120.913 29.7856 120.646 29.1377 120.278 28.5344L120.183 28.3819L120.316 28.2676C122.38 26.521 124.641 24.9586 127.03 23.6248L127.195 23.5295L127.303 23.6883C128.357 25.2888 129.081 27.0482 129.456 28.9091L129.494 29.0933L129.316 29.1568Z" fill="white"/>
<path d="M16.3103 22.9479L5.8396 47.5735C5.61338 48.1875 5.25789 48.6723 4.77314 49.0278C4.3207 49.3509 3.81978 49.5125 3.27039 49.5125C2.39783 49.5125 1.75149 49.2701 1.33137 48.7854C0.911248 48.3006 0.701187 47.7028 0.701187 46.9918C0.701187 46.7009 0.749662 46.3939 0.846614 46.0708L12.917 17.0823C13.1756 16.436 13.5634 15.9351 14.0805 15.5796C14.6298 15.2241 15.2116 15.0787 15.8256 15.1433C16.4073 15.1433 16.9405 15.3211 17.4253 15.6765C17.9423 15.9997 18.314 16.4683 18.5402 17.0823L30.4652 45.489C30.6268 45.9092 30.7076 46.297 30.7076 46.6525C30.7076 47.525 30.4167 48.2198 29.835 48.7369C29.2856 49.254 28.6716 49.5125 27.993 49.5125C27.4112 49.5125 26.878 49.3348 26.3933 48.9793C25.9408 48.6238 25.5853 48.139 25.3268 47.525L14.9045 23.2387L16.3103 22.9479ZM7.34235 41.6595L10.0085 36.0848H23.0969L24.018 41.6595H7.34235ZM58.4311 15.2887C59.2713 15.2887 59.95 15.5796 60.4671 16.1613C60.9841 16.7107 61.2427 17.4055 61.2427 18.2457V35.7939C61.2427 38.4762 60.661 40.8515 59.4976 42.9198C58.3665 44.9881 56.7991 46.604 54.7954 47.7674C52.7918 48.9308 50.4649 49.5125 47.8149 49.5125C45.1649 49.5125 42.8219 48.9308 40.786 47.7674C38.7823 46.604 37.1988 44.9881 36.0354 42.9198C34.9043 40.8515 34.3387 38.4762 34.3387 35.7939V18.2457C34.3387 17.4055 34.6296 16.7107 35.2113 16.1613C35.793 15.5796 36.5363 15.2887 37.4412 15.2887C38.1844 15.2887 38.8469 15.5796 39.4287 16.1613C40.0427 16.7107 40.3497 17.4055 40.3497 18.2457V35.7939C40.3497 37.4098 40.689 38.8156 41.3677 40.0113C42.0787 41.1747 42.9997 42.0796 44.1308 42.7259C45.2942 43.3723 46.5223 43.6954 47.8149 43.6954C49.2046 43.6954 50.4973 43.3723 51.693 42.7259C52.8887 42.0796 53.8582 41.1747 54.6015 40.0113C55.3448 38.8156 55.7165 37.4098 55.7165 35.7939V18.2457C55.7165 17.4055 55.9588 16.7107 56.4436 16.1613C56.9283 15.5796 57.5908 15.2887 58.4311 15.2887ZM80.0065 49.2701C79.1017 49.2701 78.3584 48.9954 77.7767 48.4461C77.1949 47.8643 76.9041 47.1534 76.9041 46.3131V18.1973H83.2059V46.3131C83.2059 47.1534 82.8989 47.8643 82.2849 48.4461C81.7032 48.9954 80.9437 49.2701 80.0065 49.2701ZM69.2934 20.9119C68.4532 20.9119 67.7422 20.6534 67.1605 20.1363C66.6111 19.6192 66.3364 18.9406 66.3364 18.1003C66.3364 17.2601 66.6111 16.5976 67.1605 16.1128C67.7422 15.5958 68.4532 15.3372 69.2934 15.3372H90.8166C91.6568 15.3372 92.3517 15.5958 92.901 16.1128C93.4828 16.6299 93.7736 17.3086 93.7736 18.1488C93.7736 18.989 93.4828 19.6677 92.901 20.1848C92.3517 20.6695 91.6568 20.9119 90.8166 20.9119H69.2934ZM155.813 49.7549C153.292 49.7549 150.965 49.3348 148.832 48.4945C146.731 47.622 144.889 46.4101 143.306 44.8589C141.755 43.2753 140.543 41.4171 139.67 39.2842C138.83 37.1512 138.41 34.8244 138.41 32.3037C138.41 29.7829 138.83 27.4561 139.67 25.3232C140.543 23.1903 141.755 21.3482 143.306 19.797C144.889 18.2134 146.731 17.0015 148.832 16.1613C150.965 15.2887 153.292 14.8525 155.813 14.8525C157.59 14.8525 159.303 15.0787 160.951 15.5311C162.599 15.9512 164.07 16.5976 165.362 17.4701C165.524 17.5671 165.637 17.6964 165.702 17.8579C165.766 17.9872 165.799 18.1326 165.799 18.2942C165.799 18.6174 165.685 18.8598 165.459 19.0214C165.233 19.1829 165.039 19.2637 164.877 19.2637C164.748 19.2637 164.635 19.2476 164.538 19.2153C164.441 19.1506 164.344 19.1022 164.247 19.0698C163.052 18.3912 161.743 17.8418 160.321 17.4217C158.899 17.0015 157.396 16.7915 155.813 16.7915C152.807 16.7915 150.141 17.4701 147.814 18.8275C145.52 20.1525 143.71 21.9784 142.385 24.3052C141.092 26.632 140.446 29.2982 140.446 32.3037C140.446 35.3092 141.092 37.9915 142.385 40.3506C143.71 42.6775 145.52 44.5034 147.814 45.8284C150.141 47.1534 152.807 47.8159 155.813 47.8159C157.428 47.8159 159.012 47.5735 160.563 47.0887C162.147 46.5717 163.536 45.9092 164.732 45.1012L164.538 45.9738V33.8549L165.217 34.4851H155.813C155.554 34.4851 155.328 34.3881 155.134 34.1942C154.94 34.0003 154.843 33.7741 154.843 33.5156C154.843 33.2247 154.94 32.9985 155.134 32.8369C155.328 32.643 155.554 32.5461 155.813 32.5461H165.508C165.799 32.5461 166.025 32.643 166.186 32.8369C166.38 33.0308 166.477 33.257 166.477 33.5156V45.6829C166.477 45.8122 166.445 45.9576 166.38 46.1192C166.316 46.2808 166.202 46.4262 166.041 46.5555C164.619 47.525 163.019 48.3006 161.242 48.8823C159.497 49.464 157.687 49.7549 155.813 49.7549ZM175.461 15.3372H193.737C193.995 15.3372 194.221 15.4342 194.415 15.6281C194.609 15.822 194.706 16.0482 194.706 16.3067C194.706 16.5976 194.609 16.84 194.415 17.0339C194.221 17.1954 193.995 17.2762 193.737 17.2762H176.043L176.528 16.4522V31.4796L175.946 30.8009H191.555C191.814 30.8009 192.04 30.8979 192.234 31.0918C192.428 31.2857 192.525 31.5119 192.525 31.7704C192.525 32.0613 192.428 32.3037 192.234 32.4976C192.04 32.6592 191.814 32.74 191.555 32.74H176.043L176.528 32.2067V47.5735L176.334 47.3311H193.737C193.995 47.3311 194.221 47.4281 194.415 47.622C194.609 47.8159 194.706 48.0421 194.706 48.3006C194.706 48.5915 194.609 48.8339 194.415 49.0278C194.221 49.1893 193.995 49.2701 193.737 49.2701H175.461C175.203 49.2701 174.977 49.1732 174.783 48.9793C174.589 48.7854 174.492 48.5592 174.492 48.3006V16.3067C174.492 16.0482 174.589 15.822 174.783 15.6281C174.977 15.4342 175.203 15.3372 175.461 15.3372ZM211.594 49.2701C211.303 49.2701 211.061 49.1732 210.867 48.9793C210.706 48.7854 210.625 48.5592 210.625 48.3006V16.5006H212.564V48.3006C212.564 48.5592 212.467 48.7854 212.273 48.9793C212.079 49.1732 211.853 49.2701 211.594 49.2701ZM199.815 17.1793C199.556 17.1793 199.33 17.0985 199.136 16.9369C198.942 16.743 198.845 16.5168 198.845 16.2582C198.845 15.9997 198.942 15.7897 199.136 15.6281C199.33 15.4342 199.556 15.3372 199.815 15.3372H223.374C223.632 15.3372 223.859 15.4342 224.053 15.6281C224.246 15.7897 224.343 15.9997 224.343 16.2582C224.343 16.5491 224.246 16.7753 224.053 16.9369C223.859 17.0985 223.632 17.1793 223.374 17.1793H199.815Z" fill="white"/>
</svg>
