<svg width="19" height="20" viewBox="0 0 19 20" fill="none" xmlns="http://www.w3.org/2000/svg">
<path d="M16.413 10.807C16.2094 10.807 15.9964 10.7421 15.7927 10.6958C15.3803 10.6048 14.9749 10.4839 14.5799 10.3342C14.1504 10.1778 13.6783 10.1859 13.2544 10.357C12.8306 10.5282 12.4849 10.8503 12.2839 11.2613L12.0802 11.6785C11.1785 11.1762 10.3499 10.5523 9.61755 9.82434C8.89057 9.09105 8.26755 8.26131 7.76592 7.35835L8.15477 7.09877C8.56524 6.89752 8.88688 6.55137 9.0578 6.12692C9.22872 5.70248 9.23683 5.22973 9.08058 4.79966C8.93358 4.40326 8.81296 3.99756 8.71951 3.5852C8.67322 3.38125 8.63619 3.16802 8.60841 2.9548C8.49599 2.3018 8.15442 1.71044 7.64522 1.28723C7.13601 0.864028 6.49264 0.636779 5.83097 0.646412H3.05352C2.65453 0.642661 2.25941 0.72504 1.89506 0.887941C1.53071 1.05084 1.2057 1.29044 0.942137 1.59042C0.678576 1.89041 0.482659 2.24374 0.367722 2.62635C0.252785 3.00897 0.221528 3.4119 0.276078 3.8077C0.769295 7.69152 2.54065 11.3001 5.31034 14.0635C8.08003 16.8268 11.6902 18.5874 15.5705 19.0672H15.9224C16.6051 19.0682 17.2642 18.8173 17.774 18.3626C18.0669 18.1003 18.3009 17.7787 18.4604 17.4191C18.62 17.0596 18.7016 16.6702 18.6998 16.2767V13.4955C18.6885 12.8516 18.4543 12.2315 18.0372 11.7412C17.6202 11.2509 17.0461 10.9207 16.413 10.807ZM16.8759 16.3694C16.8758 16.501 16.8476 16.6311 16.7933 16.751C16.7391 16.8709 16.6599 16.9778 16.5612 17.0647C16.4577 17.1541 16.3368 17.221 16.206 17.2609C16.0753 17.3008 15.9377 17.3129 15.802 17.2965C12.3347 16.8513 9.11413 15.2629 6.6482 12.7819C4.18227 10.3009 2.61136 7.06849 2.18326 3.59447C2.16852 3.45868 2.18144 3.3213 2.22122 3.19064C2.261 3.05998 2.32682 2.93875 2.41471 2.83428C2.50147 2.73539 2.60826 2.65614 2.72799 2.60179C2.84771 2.54744 2.97762 2.51925 3.10907 2.51908H5.88652C6.10181 2.51428 6.31204 2.58479 6.48102 2.71846C6.65 2.85214 6.76716 3.04062 6.81233 3.25146C6.84936 3.50486 6.89566 3.75516 6.9512 4.00238C7.05815 4.49108 7.20049 4.97133 7.37708 5.43933L6.08094 6.04192C5.97012 6.09284 5.87043 6.16517 5.7876 6.25477C5.70477 6.34437 5.64044 6.44947 5.59828 6.56404C5.55613 6.6786 5.537 6.80038 5.54197 6.92237C5.54695 7.04437 5.57594 7.16417 5.62729 7.27491C6.95972 10.1328 9.25393 12.4301 12.108 13.7644C12.3334 13.8571 12.5862 13.8571 12.8116 13.7644C12.9271 13.723 13.0332 13.6591 13.1238 13.5763C13.2144 13.4936 13.2876 13.3936 13.3393 13.2823L13.9133 11.9844C14.3919 12.1558 14.8804 12.2982 15.3761 12.4108C15.623 12.4665 15.873 12.5128 16.126 12.5499C16.3366 12.5951 16.5248 12.7125 16.6583 12.8817C16.7918 13.0509 16.8622 13.2614 16.8574 13.477L16.8759 16.3694Z" fill="white"/>
</svg>
