<svg width="41" height="41" viewBox="0 0 41 41" fill="none" xmlns="http://www.w3.org/2000/svg">
<path d="M40.1318 20.3984C40.1318 31.4441 31.1775 40.3984 20.1318 40.3984C9.08614 40.3984 0.131836 31.4441 0.131836 20.3984C0.131836 9.35268 9.08614 0.398376 20.1318 0.398376C31.1775 0.398376 40.1318 9.35268 40.1318 20.3984Z" fill="#6398FF"/>
<path d="M26.796 21.0856C26.5927 21.0856 26.3801 21.0207 26.1767 20.9743C25.7649 20.8833 25.3602 20.7625 24.9658 20.6128C24.5369 20.4563 24.0656 20.4645 23.6424 20.6356C23.2191 20.8067 22.874 21.1288 22.6733 21.5399L22.47 21.957C21.5696 21.4547 20.7423 20.8309 20.0111 20.1029C19.2853 19.3696 18.6632 18.5399 18.1624 17.6369L18.5506 17.3773C18.9605 17.1761 19.2816 16.8299 19.4523 16.4055C19.6229 15.981 19.631 15.5083 19.475 15.0782C19.3282 14.6818 19.2078 14.2761 19.1145 13.8638C19.0683 13.6598 19.0313 13.4466 19.0036 13.2334C18.8913 12.5804 18.5503 11.989 18.0419 11.5658C17.5335 11.1426 16.8911 10.9153 16.2305 10.925H13.4574C13.059 10.9212 12.6645 11.0036 12.3007 11.1665C11.9369 11.3294 11.6124 11.569 11.3493 11.869C11.0861 12.169 10.8905 12.5223 10.7757 12.9049C10.661 13.2875 10.6298 13.6905 10.6842 14.0863C11.1767 17.9701 12.9453 21.5787 15.7106 24.342C18.476 27.1054 22.0805 28.866 25.9548 29.3457H26.3061C26.9878 29.3467 27.6459 29.0959 28.1548 28.6412C28.4473 28.3788 28.6809 28.0573 28.8402 27.6977C28.9996 27.3381 29.081 26.9487 29.0792 26.5553V23.7741C29.0679 23.1301 28.8341 22.5101 28.4177 22.0198C28.0013 21.5294 27.4281 21.1993 26.796 21.0856ZM27.2582 26.648C27.258 26.7796 27.2299 26.9097 27.1757 27.0296C27.1216 27.1495 27.0425 27.2564 26.9439 27.3433C26.8406 27.4327 26.7199 27.4995 26.5893 27.5394C26.4588 27.5793 26.3214 27.5915 26.1859 27.575C22.7241 27.1299 19.5085 25.5415 17.0464 23.0605C14.5843 20.5795 13.0159 17.3471 12.5884 13.873C12.5737 13.7372 12.5866 13.5999 12.6263 13.4692C12.6661 13.3385 12.7318 13.2173 12.8195 13.1128C12.9062 13.014 13.0128 12.9347 13.1323 12.8804C13.2519 12.826 13.3816 12.7978 13.5128 12.7976H16.2859C16.5009 12.7928 16.7108 12.8634 16.8795 12.997C17.0482 13.1307 17.1652 13.3192 17.2103 13.53C17.2473 13.7834 17.2935 14.0337 17.349 14.2809C17.4557 14.7696 17.5978 15.2499 17.7742 15.7179L16.48 16.3205C16.3694 16.3714 16.2699 16.4437 16.1872 16.5333C16.1045 16.6229 16.0402 16.728 15.9981 16.8426C15.9561 16.9572 15.937 17.0789 15.9419 17.2009C15.9469 17.3229 15.9758 17.4427 16.0271 17.5535C17.3575 20.4114 19.6481 22.7087 22.4977 24.0429C22.7227 24.1356 22.9752 24.1356 23.2002 24.0429C23.3155 24.0016 23.4214 23.9377 23.5119 23.8549C23.6023 23.7721 23.6755 23.6722 23.7271 23.5609L24.3002 22.263C24.7781 22.4344 25.2658 22.5768 25.7607 22.6894C26.0072 22.745 26.2568 22.7914 26.5095 22.8285C26.7197 22.8737 26.9076 22.991 27.0409 23.1602C27.1742 23.3294 27.2445 23.5399 27.2397 23.7555L27.2582 26.648Z" fill="white"/>
</svg>
