<svg width="27" height="27" viewBox="0 0 27 27" fill="none" xmlns="http://www.w3.org/2000/svg">
<path fill-rule="evenodd" clip-rule="evenodd" d="M18.8479 7.79713C17.5001 6.51171 15.7015 5.81145 13.8405 5.84023C10.4352 5.84023 7.54299 8.13765 6.51177 11.2313C5.96499 12.8524 5.96499 14.6079 6.51176 16.2291H6.51655C7.55256 19.3179 10.4399 21.6154 13.8453 21.6154C15.6032 21.6154 17.1123 21.1657 18.282 20.3716V20.3683C19.6585 19.457 20.5986 18.0229 20.8912 16.4018H13.8406V11.3752H26.1527C26.3062 12.2482 26.3782 13.1403 26.3782 14.0276C26.3782 17.9978 24.9593 21.3544 22.4905 23.6278L22.4931 23.6298C20.33 25.6251 17.361 26.781 13.8405 26.781C8.90512 26.781 4.39178 23.9991 2.17588 19.5913C0.324508 15.9029 0.324513 11.5575 2.17589 7.8691C4.39179 3.45649 8.90512 0.674586 13.8405 0.674586C17.0829 0.636215 20.2149 1.85448 22.5746 4.07038L18.8479 7.79713Z" fill="white"/>
</svg>
