<svg width="27" height="24" viewBox="0 0 27 24" fill="none" xmlns="http://www.w3.org/2000/svg">
<path d="M24.2507 0.571341C23.9317 0.594508 23.6186 0.669212 23.3236 0.792538H23.3196C23.0364 0.904624 21.6898 1.47001 19.6427 2.32703L12.3068 5.41089C7.04295 7.62286 1.8685 9.8011 1.8685 9.8011L1.93011 9.77729C1.93011 9.77729 1.57335 9.89434 1.2007 10.1493C0.970472 10.2955 0.772363 10.4868 0.618358 10.7117C0.435508 10.9795 0.288433 11.3892 0.343089 11.8127C0.432527 12.5289 0.897602 12.9584 1.2315 13.1954C1.56938 13.4355 1.89135 13.5476 1.89135 13.5476H1.8993L6.75179 15.1793C6.96942 15.8766 8.23049 20.0148 8.53358 20.9681C8.71245 21.5374 8.88636 21.8935 9.10399 22.1653C9.20933 22.3042 9.33255 22.4202 9.48062 22.5135C9.5576 22.5582 9.63968 22.5935 9.72509 22.6186L9.6754 22.6067C9.6903 22.6107 9.70223 22.6226 9.71316 22.6265C9.75291 22.6375 9.77974 22.6414 9.83042 22.6494C10.5986 22.8815 11.2157 22.4053 11.2157 22.4053L11.2505 22.3776L14.1155 19.7738L18.9173 23.4508L19.0266 23.4974C20.0273 23.9359 21.0409 23.6919 21.5766 23.2614C22.1162 22.8279 22.3258 22.2734 22.3258 22.2734L22.3606 22.1842L26.0713 3.20983C26.1766 2.74165 26.2035 2.30322 26.0872 1.87769C25.9673 1.44703 25.6905 1.07663 25.3111 0.839158C24.9925 0.645849 24.6231 0.552543 24.2507 0.571341ZM24.1504 2.60476C24.1464 2.66726 24.1583 2.66031 24.1305 2.78033V2.79124L20.4546 21.5682C20.4387 21.595 20.4119 21.6535 20.3383 21.712C20.2608 21.7735 20.1992 21.8122 19.8762 21.6842L14.0032 17.1899L10.4555 20.4176L11.2008 15.6663L20.7965 6.73906C21.192 6.37205 21.0598 6.29468 21.0598 6.29468C21.0876 5.84436 20.4626 6.16276 20.4626 6.16276L8.36265 13.6448L8.35868 13.6249L2.55915 11.6758V11.6719L2.54425 11.6689C2.55441 11.6655 2.56437 11.6615 2.57406 11.657L2.60586 11.6411L2.63667 11.6302C2.63667 11.6302 7.8151 9.45195 13.079 7.23998C15.7144 6.13201 18.3697 5.01611 20.4119 4.15513C21.623 3.64628 22.8354 3.1404 24.049 2.6375C24.1305 2.60576 24.0917 2.60576 24.1504 2.60576V2.60476Z" fill="white"/>
</svg>
