<svg width="31" height="33" viewBox="0 0 31 33" fill="none" xmlns="http://www.w3.org/2000/svg">
<path d="M27.1984 3.70106C26.4096 2.97572 23.2172 0.663321 16.0994 0.632323C16.0994 0.632323 7.70847 0.130167 3.62167 3.87464C1.34847 6.14364 0.547256 9.47275 0.460302 13.5954C0.373349 17.718 0.267763 25.4426 7.7271 27.538H7.73331L7.7271 30.7369C7.7271 30.7369 7.67741 32.0326 8.53452 32.293C9.56554 32.6153 10.1742 31.6296 11.1617 30.5695C11.7021 29.9868 12.4474 29.1312 13.0126 28.4803C18.118 28.9081 22.0371 27.9285 22.4843 27.786C23.5153 27.4512 29.3474 26.7072 30.2914 18.9827C31.2728 11.0102 29.8194 5.97626 27.1984 3.70106V3.70106ZM28.0617 18.4C27.2605 24.8474 22.534 25.2566 21.6644 25.5356C21.2918 25.6533 17.8447 26.5089 13.5157 26.2299C13.5157 26.2299 10.286 30.117 9.27983 31.1275C8.95065 31.456 8.59042 31.425 8.59663 30.7741C8.59663 30.3463 8.62147 25.4612 8.62147 25.4612C8.61526 25.4612 8.61526 25.4612 8.62147 25.4612C2.29874 23.7129 2.6714 17.1353 2.73972 13.6946C2.80804 10.2539 3.46019 7.43313 5.38558 5.5361C8.84507 2.40537 15.969 2.87033 15.969 2.87033C21.9874 2.89513 24.8693 4.70537 25.5401 5.31292C27.7574 7.20995 28.8878 11.748 28.0617 18.4V18.4ZM19.4285 13.3908C19.4534 13.924 18.6521 13.9612 18.6273 13.428C18.559 12.0641 17.9192 11.4008 16.6025 11.3264C16.0684 11.2954 16.1181 10.4957 16.646 10.5267C18.3789 10.6197 19.3416 11.6116 19.4285 13.3908ZM20.6893 14.0913C20.7514 11.4628 19.1055 9.40456 15.9814 9.17518C15.4535 9.13798 15.5094 8.33825 16.0373 8.37545C19.6397 8.63583 21.5589 11.1094 21.4905 14.1099C21.4843 14.6431 20.6769 14.6183 20.6893 14.0913V14.0913ZM23.6085 14.9221C23.6147 15.4552 22.8073 15.4614 22.8073 14.9283C22.77 9.87572 19.3975 7.12316 15.3044 7.09216C14.7765 7.08596 14.7765 6.29243 15.3044 6.29243C19.8819 6.32343 23.565 9.47895 23.6085 14.9221V14.9221ZM22.9066 21.0037V21.0161C22.2359 22.194 20.9812 23.4959 19.6894 23.0806L19.6769 23.062C18.3664 22.6962 15.2796 21.1091 13.3294 19.5593C12.3232 18.7657 11.404 17.8296 10.6959 16.9307C10.0562 16.131 9.41026 15.1825 8.78296 14.0418C7.46003 11.655 7.16811 10.5887 7.16811 10.5887C6.75198 9.29917 8.05007 8.04688 9.23636 7.37733H9.24878C9.82019 7.07976 10.3667 7.17895 10.7332 7.61911C10.7332 7.61911 11.5033 8.53663 11.8325 8.98919C12.1431 9.41076 12.5592 10.0865 12.7766 10.4647C13.1555 11.1404 12.9194 11.8285 12.5468 12.1137L11.8015 12.7089C11.4226 13.0126 11.4723 13.5768 11.4723 13.5768C11.4723 13.5768 12.5778 17.749 16.7081 18.8029C16.7081 18.8029 17.2733 18.8525 17.5776 18.4744L18.1739 17.7304C18.4596 17.3585 19.149 17.1229 19.826 17.5011C20.739 18.0156 21.9005 18.8153 22.6706 19.5407C23.1054 19.894 23.2048 20.4334 22.9066 21.0037Z" fill="white"/>
</svg>
