<svg width="28" height="28" viewBox="0 0 28 28" fill="none" xmlns="http://www.w3.org/2000/svg">
<path d="M23.8109 4.15484C21.2026 1.5556 17.7248 0.111572 14.0539 0.111572C6.42219 0.111572 0.239547 6.27275 0.239547 13.8779C0.239547 16.2847 0.915775 18.6914 2.07502 20.713L0.142944 27.8369L7.48483 25.9115C9.51351 26.9704 11.7354 27.5481 14.0539 27.5481C21.6856 27.5481 27.8682 21.3869 27.8682 13.7817C27.7716 10.2198 26.4192 6.75409 23.8109 4.15484ZM20.7196 18.7876C20.4297 19.5578 19.0773 20.3279 18.4011 20.4242C17.8214 20.5205 17.0486 20.5205 16.2758 20.3279C15.7928 20.1354 15.1165 19.9429 14.3437 19.5578C10.866 18.1138 8.64408 14.6481 8.45087 14.3593C8.25766 14.1668 7.00182 12.5302 7.00182 10.7974C7.00182 9.06453 7.87125 8.29438 8.16106 7.90931C8.45087 7.52424 8.83728 7.52424 9.1271 7.52424C9.3203 7.52424 9.61011 7.52424 9.80332 7.52424C9.99653 7.52424 10.2863 7.42797 10.5762 8.10185C10.866 8.77572 11.5422 10.5086 11.6388 10.6048C11.7354 10.7974 11.7354 10.9899 11.6388 11.1824C11.5422 11.375 11.4456 11.5675 11.2524 11.76C11.0592 11.9526 10.866 12.2414 10.7694 12.3377C10.5761 12.5302 10.3829 12.7227 10.5762 13.0115C10.7694 13.3966 11.4456 14.4556 12.5082 15.4182C13.8607 16.5735 14.9233 16.9585 15.3097 17.1511C15.6962 17.3436 15.8894 17.2473 16.0826 17.0548C16.2758 16.8623 16.952 16.0921 17.1452 15.707C17.3384 15.322 17.6282 15.4182 17.918 15.5145C18.2078 15.6108 19.9467 16.4772 20.2365 16.6697C20.6229 16.8623 20.8162 16.9585 20.9128 17.0548C21.0094 17.3436 21.0094 18.0175 20.7196 18.7876Z" fill="white"/>
</svg>
