<svg width="36" height="25" viewBox="0 0 36 25" fill="none" xmlns="http://www.w3.org/2000/svg">
<path fill-rule="evenodd" clip-rule="evenodd" d="M4.33806 24.1364C3.71193 23.9512 3.14063 23.6216 2.67238 23.1756C2.20412 22.7295 1.85264 22.1801 1.64761 21.5736C0.475956 18.4389 0.1288 5.34936 2.38531 2.76535C3.13632 1.92476 4.19664 1.40722 5.33613 1.32508C11.3897 0.68967 30.0926 0.774392 32.2407 1.53689C32.8448 1.72822 33.3968 2.05055 33.8552 2.47971C34.3136 2.90887 34.6666 3.43374 34.8877 4.015C36.1679 7.2556 36.2113 19.0319 34.7141 22.1454C34.317 22.9559 33.6521 23.6124 32.8265 24.0093C30.57 25.1107 7.33227 25.0895 4.33806 24.1364ZM13.9499 17.9941L24.7985 12.4872L13.9499 6.93789V17.9941Z" fill="white"/>
</svg>
